# xmcd CD database file
#
# Track frame offsets:
#	150
#	25200
#	44022
#	65236
#	82452
#	99636
#	112612
#	127988
#	145025
#	171757
#	184335
#	200307
#	215150
#
# Disc length: 3329 seconds
#
# Revision: 1
# Processed by: cddbd v1.5.2PL0 Copyright (c) Steve Scherf et al.
# Submitted via: CDex 1.51
#
DISCID=c40cff0d
DTITLE=Greencards - The Brick Album
DYEAR=2011
DGENRE=Americana
TTITLE0=Make it Out West
TTITLE1=Faded
TTITLE2=Naked On the River
TTITLE3=Heart Fixer
TTITLE4=Mrs. Madness
TTITLE5=Adelaide
TTITLE6=Here Lies John
TTITLE7=Girl in the Telescope
TTITLE8=Said and Done
TTITLE9=Far From an Only Child
TTITLE10=Tale of Kangario
TTITLE11=Loving You is the Only Way to Fly
TTITLE12=The Greencards - Tale of Kangario (Reprise)
EXTD=YEAR: 2011
EXTT0=
EXTT1=
EXTT2=
EXTT3=
EXTT4=
EXTT5=
EXTT6=
EXTT7=
EXTT8=
EXTT9=
EXTT10=
EXTT11=
EXTT12=
PLAYORDER=
